<svg aria-hidden="true" style="position: absolute; width: 0; height: 0; overflow: hidden;" version="1.1" xmlns="http://www.w3.org/2000/svg" xmlns:xlink="http://www.w3.org/1999/xlink">
<symbol id="icon-logo" viewBox="0 0 32 32">
<path d="M11.992 30.596c-13.475-8.803-9.712-27.135-9.766-29.773-2.715 6.586-2.185 13.389-2.185 15.163 0 7.57 5.256 13.897 12.307 15.552-0.108-0.27-0.303-0.79-0.357-0.941z"></path>
<path d="M24.765 2.606c0.757 10.555-14.103 17.877-11.129 27.145 4.099-3.32 10.328-9.16 12.134-15.141-0.919 3.904-3.472 10.826-10.566 17.336 9.182 0.465 16.796-6.857 16.796-15.963 0-5.602-2.877-10.523-7.235-13.378z"></path>
<path d="M16.026 0c-3.32 0-6.294 1.503-7.96 2.466-2.606-1.644-3.98-1.644-5.094-1.936 0.973 1.125 12.264 6.878 9.149 14.806-1.536 3.904-1.136 7.743-1.136 10.317-4.748-5.97-5.602-11.356-5.602-11.356-0.119 5.808 3.818 11.767 6.165 14.719-0.649-13.67 12.361-21.154 12.643-26.767-2.39-1.428-5.18-2.249-8.165-2.249z"></path>
</symbol>
</svg>
