<svg aria-hidden="true" style="position: absolute; width: 0; height: 0; overflow: hidden;" version="1.1" xmlns="http://www.w3.org/2000/svg" xmlns:xlink="http://www.w3.org/1999/xlink">
<symbol id="icon-logo" viewBox="0 0 32 32">
<path d="M11.992 30.596c-13.475-8.803-9.712-27.135-9.766-29.773-2.715 6.586-2.185 13.389-2.185 15.163 0 7.57 5.256 13.897 12.307 15.552-0.108-0.27-0.303-0.79-0.357-0.941z"></path>
<path d="M24.765 2.606c0.757 10.555-14.103 17.877-11.129 27.145 4.099-3.32 10.328-9.16 12.134-15.141-0.919 3.904-3.472 10.826-10.566 17.336 9.182 0.465 16.796-6.857 16.796-15.963 0-5.602-2.877-10.523-7.235-13.378z"></path>
<path d="M16.026 0c-3.32 0-6.294 1.503-7.96 2.466-2.606-1.644-3.98-1.644-5.094-1.936 0.973 1.125 12.264 6.878 9.149 14.806-1.536 3.904-1.136 7.743-1.136 10.317-4.748-5.97-5.602-11.356-5.602-11.356-0.119 5.808 3.818 11.767 6.165 14.719-0.649-13.67 12.361-21.154 12.643-26.767-2.39-1.428-5.18-2.249-8.165-2.249z"></path>
</symbol>
<symbol id="icon-github" viewBox="0 0 32 32">
<path d="M16 0.395c-8.836 0-16 7.163-16 16 0 7.069 4.585 13.067 10.942 15.182 0.8 0.148 1.094-0.347 1.094-0.77 0-0.381-0.015-1.642-0.022-2.979-4.452 0.968-5.391-1.888-5.391-1.888-0.728-1.849-1.776-2.341-1.776-2.341-1.452-0.993 0.11-0.973 0.11-0.973 1.606 0.113 2.452 1.649 2.452 1.649 1.427 2.446 3.743 1.739 4.656 1.33 0.143-1.034 0.558-1.74 1.016-2.14-3.554-0.404-7.29-1.777-7.29-7.907 0-1.747 0.625-3.174 1.649-4.295-0.166-0.403-0.714-2.030 0.155-4.234 0 0 1.344-0.43 4.401 1.64 1.276-0.355 2.645-0.532 4.005-0.539 1.359 0.006 2.729 0.184 4.008 0.539 3.054-2.070 4.395-1.64 4.395-1.64 0.871 2.204 0.323 3.831 0.157 4.234 1.026 1.12 1.647 2.548 1.647 4.295 0 6.145-3.743 7.498-7.306 7.895 0.574 0.497 1.085 1.47 1.085 2.963 0 2.141-0.019 3.864-0.019 4.391 0 0.426 0.288 0.925 1.099 0.768 6.354-2.118 10.933-8.113 10.933-15.18 0-8.837-7.164-16-16-16z"></path>
</symbol>
<symbol id="icon-burger" viewBox="0 0 48 32">
<path d="M0 2.286c0-1.262 1.023-2.286 2.286-2.286h43.429c1.262 0 2.286 1.023 2.286 2.286s-1.023 2.286-2.286 2.286h-43.429c-1.262 0-2.286-1.023-2.286-2.286z"></path>
<path d="M0 16c0-1.262 1.023-2.286 2.286-2.286h43.429c1.262 0 2.286 1.023 2.286 2.286s-1.023 2.286-2.286 2.286h-43.429c-1.262 0-2.286-1.023-2.286-2.286z"></path>
<path d="M0 29.714c0-1.262 1.023-2.286 2.286-2.286h43.429c1.262 0 2.286 1.023 2.286 2.286s-1.023 2.286-2.286 2.286h-43.429c-1.262 0-2.286-1.023-2.286-2.286z"></path>
</symbol>
<symbol id="icon-close-burger" viewBox="0 0 35 32">
<path fill="#fff" style="fill: var(--color1, #fff)" d="M2.090 2.994c0.392-0.843 1.283-1.036 1.989-0.431l28.632 24.541c0.706 0.605 0.961 1.78 0.568 2.623s-1.283 1.036-1.989 0.431l-28.632-24.541c-0.706-0.605-0.961-1.78-0.568-2.623z"></path>
<path fill="#fff" style="fill: var(--color1, #fff)" d="M2.090 29.728c-0.392-0.843-0.138-2.018 0.568-2.623l28.632-24.541c0.706-0.605 1.597-0.412 1.989 0.431s0.138 2.018-0.568 2.623l-28.631 24.541c-0.706 0.605-1.597 0.412-1.989-0.431z"></path>
</symbol>
</svg>
